PathFileType	4	(X/Y/Z)	C:/Users/beibeiliu/ov580/test_trc/User1\sequence.24_training_dense_right.trc
DataRate	CameraRate	NumFrames	NumMarkers	Units	OrigDataRate	OrigDataStartFrame	OrigNumFrames
120	120	18	19	mm	120	76	177
Frame#	Time	ThumbCMC			ThumbMCP			ThumbIP			ThumbTip			IndexMCP			IndexPIP			IndexTip			MiddleMCP			MiddlePIP			MiddleTip			RingMCP			RingPIP			RingTip			PinkyMCP			PinkyPIP			PinkyTip			BackHand1			BackHand2			BackHand3	
		X0	Y0	Z0	X1	Y1	Z1	X2	Y2	Z2	X3	Y3	Z3	X4	Y4	Z4	X5	Y5	Z5	X6	Y6	Z6	X7	Y7	Z7	X8	Y8	Z8	X9	Y9	Z9	X10	Y10	Z10	X11	Y11	Z11	X12	Y12	Z12	X13	Y13	Z13	X14	Y14	Z14	X15	Y15	Z15	X16	Y16	Z16	X17	Y17	Z17	X18	Y18	Z18	
75	0.625	124.162	18.7628	61.8523	110.837	14.1418	26.9977	120.405	8.55826	-0.901997	138.915	-5.75583	-23.9362	155.16	40.0938	-16.257	159.677	40.1754	-40.4095	166.662	39.2703	-64.9818	162.868	16.8212	-23.7184	148.705	-1.38335	-50.3494	128.062	-28.8061	-63.0227	160.664	-18.5784	-12.1365	135.552	-34.4372	-4.39788	129.581	-31.9649	29.7791	175.309	-31.0097	3.48059	148.306	-42.3958	11.7196	141.163	-24.7731	42.0283	190.82	7.92739	38.0604	186.411	5.63193	76.4307	162.223	35.031	56.667	
76	0.633333	120.399	15.0373	65.401	108.855	11.0104	25.8927	118.202	4.84622	0.222315	132.389	-7.82828	-22.9459	147.577	39.6925	-11.3082	146.917	43.139	-38.0173	158.237	39.8834	-67.1915	155.887	17.9403	-25.1296	145.068	-1.52149	-49.2303	126.49	-26.6128	-60.5061	159.36	-12.5221	-10.6123	134.404	-37.4269	0.0677066	131.016	-32.9803	31.3071	173.429	-26.2296	2.89387	149.116	-40.1572	12.2703	141.603	-21.4127	41.6293	184.31	13.1078	41.8152	187.987	11.3185	73.5942	157.281	33.148	62.0025	
77	0.641667	115.89	12.6311	65.9783	105.332	4.15452	31.3166	112.918	2.17221	2.24766	128.837	-9.40729	-20.8932	134.719	42.5117	-15.6357	137.462	41.5065	-38.9535	147.183	40.4544	-64.5434	148.913	16.5527	-25.4072	136.555	0.948874	-46.7652	126.403	-28.8522	-62.5536	156.291	-17.0974	-12.5277	134.054	-35.6076	-1.46498	129.043	-34.4197	30.7482	174.224	-27.121	3.02087	149.825	-40.983	16.2528	145.739	-22.022	44.8023	179.986	16.7226	37.4833	183.986	13.0466	71.7252	153.217	32.1631	58.8563	
78	0.65	112.421	8.25049	68.8676	98.6568	-0.11021	33.7155	109.082	0.665923	-1.21347	129.059	-8.98072	-17.9227	127.971	37.4877	-10.7877	126.461	41.0287	-37.0925	136.184	40.9183	-62.9719	142.69	17.8517	-21.8631	135.368	-2.02438	-45.8296	123.914	-27.1869	-63.2897	154.447	-14.4252	-11.1723	136.695	-41.1173	1.36837	132.667	-36.307	33.4583	170.251	-25.8057	1.41001	151.492	-41.035	14.8451	142.491	-22.1544	42.1512	175.711	21.9344	38.0862	177.646	19.4314	75.1409	146.525	32.8535	58.4821	
79	0.658333	109.413	5.78739	67.304	95.579	-1.79813	33.0345	104.421	-4.21219	6.71812	123.017	-9.08802	-15.9514	118.083	37.5052	-14.7932	122.668	38.3926	-38.8269	123.838	41.2193	-62.6184	135	17.2257	-22.4093	128.798	-1.79329	-44.2478	118.628	-30.4914	-65.7462	150.472	-9.11673	-9.9829	134.087	-40.2141	1.23671	133.196	-36.7762	35.8165	169.889	-23.2367	0.415216	148.29	-35.8325	14.2003	143.794	-21.5526	45.6037	170.556	24.2909	38.973	172.544	22.5338	72.3266	139.091	32.0087	60.8024	
80	0.666667	107.208	3.58533	69.5972	93.9009	-4.17098	32.2215	100.962	-5.29337	4.43649	116.031	-12.0442	-20.2299	116.253	35.2719	-14.0296	114.214	36.7641	-37.1813	118.646	39.3387	-62.1216	132.267	14.3	-23.3085	127.166	-4.61076	-45.1041	116.778	-29.6162	-63.0737	148.39	-9.37634	-10.5778	134.448	-38.9525	0.499812	131.775	-38.7038	35.2745	165.832	-18.6735	0.4442	149.273	-37.7828	18.3903	145.648	-18.9714	46.5024	164.983	26.0245	38.7609	169.855	22.3605	72.5161	134.717	31.2119	61.253	
81	0.675	105.104	1.09405	68.8427	92.4981	-8.0071	34.1083	97.5232	-7.34873	4.79446	116.082	-11.7627	-15.0368	108.065	33.7702	-13.4998	108.146	34.1038	-37.2783	112.067	38.1637	-63.4983	130.402	12.5079	-25.9774	123.497	-9.08831	-46.3307	114.336	-33.8846	-62.0041	146.533	-12.276	-11.0836	132.175	-41.2969	3.09092	135.682	-40.1918	37.1504	164.141	-20.0369	1.07519	150.282	-38.7427	19.1084	142.829	-21.9081	46.6108	162.97	25.2568	39.9696	170.813	22.8192	73.5982	135.176	30.8243	59.8432	
82	0.683333	100.695	-0.14023	68.1289	90.6779	-9.4629	34.2512	98.7094	-7.90532	4.69836	114.475	-13.2365	-16.8702	108.501	30.0392	-14.9677	106.702	31.2767	-35.9896	111.1	32.4291	-60.1065	125.974	12.1456	-23.3145	117.895	-5.93703	-42.5302	113.191	-39.4826	-62.016	143.103	-14.1813	-11.0064	131.299	-42.2545	4.77127	133.056	-40.972	34.8807	163.537	-17.6009	0.936742	150.13	-39.816	19.051	141.539	-24.2203	45.6144	161.221	25.7866	34.5319	165.486	24.959	70.4982	129.888	29.949	57.2648	
83	0.691667	103.281	-1.56083	69.3515	88.0257	-10.6592	33.1929	94.382	-10.312	5.76949	111.362	-14.8845	-17.9805	106.7	29.3092	-12.2962	102.434	30.8219	-38.6338	104.265	32.4774	-64.1679	126.251	11.3607	-23.6345	118.235	-9.23549	-43.3598	111.717	-38.6152	-59.5569	140.996	-11.7152	-9.76162	133.233	-42.5213	1.50756	128.803	-40.138	37.3086	159.865	-22.3356	1.18783	145.998	-38.8899	20.3874	139.788	-24.8362	45.5636	161.489	25.0555	35.5489	167.466	21.4546	73.4487	129.27	30.9656	58.3208	
84	0.7	101.462	-2.24143	68.9191	89.356	-10.405	34.6387	93.0338	-10.6951	3.06631	109.11	-16.5511	-15.6354	99.5035	29.3892	-14.159	102.306	27.9746	-39.2321	103.759	29.592	-65.0268	121.942	9.72983	-22.3351	115.031	-12.9284	-46.5714	112.21	-41.8621	-62.0601	137.037	-16.1454	-11.6605	133.721	-46.308	2.9317	127.039	-40.9556	35.5699	161.689	-19.2846	0.665841	147.936	-43.1701	17.8862	138.23	-25.4707	43.5072	154.147	24.8763	33.5572	163.756	22.3233	69.7358	128.426	28.7282	56.051	
85	0.708333	100.282	-2.49024	67.7535	86.0901	-12.4235	35.2922	94.3063	-11.4815	5.79939	105.748	-18.3002	-17.9281	99.9228	26.2566	-11.7131	99.5224	26.9621	-37.3504	102.198	28.66	-64.8838	118.005	6.73634	-25.6891	116.142	-11.8895	-43.7189	109.285	-42.9212	-62.7102	140.577	-18.903	-10.9085	129.098	-45.214	2.08069	130.979	-42.5119	37.6032	158.053	-23.724	1.15847	146.021	-42.8922	17.9651	138.18	-22.4617	44.7791	153.908	22.9752	36.7587	162.511	19.2073	73.1341	128.03	27.1597	60.6587	
86	0.716667	97.4143	-3.66748	68.7081	82.6484	-15.4305	36.9967	89.0939	-12.6819	3.85717	103.36	-20.2368	-17.6001	98.3697	25.6251	-13.9991	98.693	23.8374	-34.6567	103.655	26.9721	-65.8981	119.663	7.09131	-23.9925	114.094	-14.2764	-44.9913	107.137	-43.9964	-61.5469	138.455	-20.8623	-10.7844	126.731	-47.0969	5.6069	125.258	-40.906	39.0706	157.053	-22.7456	1.98093	142.072	-41.6411	19.0411	135.479	-25.6436	44.9041	153.146	21.5246	34.8983	161.916	22.043	72.2179	124.537	28.3888	58.0227	
87	0.725	97.7499	-5.44087	71.6521	84.1173	-13.2685	34.9001	88.6966	-14.0085	3.75714	107.213	-19.1406	-18.2964	99.5922	24.8026	-12.9348	98.2904	23.4204	-34.4467	98.2261	26.1592	-60.8427	116.683	5.66706	-25.0801	109.484	-13.9099	-42.9629	108.217	-42.2827	-59.6253	135.672	-19.8192	-10.3558	128.194	-48.4166	6.12503	125.343	-42.9785	37.9745	157.908	-25.076	2.37476	142.154	-42.1321	19.4329	138.203	-24.5518	47.7053	154.661	22.0848	37.1855	159.436	19.188	70.6742	124.349	25.5671	61.3462	
88	0.733333	96.838	-4.99646	72.885	80.632	-14.6779	35.9599	89.6933	-14.1145	7.57221	108.312	-19.0512	-13.8914	100.183	24.6516	-11.3792	100.232	24.7309	-38.1758	99.5615	25.6003	-64.6001	120.037	5.99015	-25.199	112.072	-13.4137	-43.2937	103.542	-44.9276	-58.0376	131.163	-20.1166	-9.69612	122.926	-47.8968	7.34833	126.378	-40.5261	41.3246	153.92	-23.6053	1.76965	140.254	-44.3682	21.2345	136.085	-23.1301	48.447	150.153	20.3447	34.0984	156.855	20.1205	69.7465	122.329	27.6279	59.9226	
89	0.741667	96.4389	0.247844	67.9856	82.327	-12.5546	36.1767	89.0583	-12.8826	4.48305	106.247	-20.7	-12.8271	99.9162	25.9506	-11.8759	97.4949	25.5197	-35.201	105.837	25.272	-65.1597	120.188	7.20475	-23.3459	108.164	-15.7548	-45.1596	97.8753	-50.104	-50.6359	130.254	-20.8498	-10.3331	122.23	-47.0962	5.3465	119.469	-38.8571	38.2715	153.773	-28.492	2.18661	136.19	-44.5652	17.8971	132.108	-28.8253	46.8532	155.124	18.2778	36.436	161.409	17.385	69.0986	122.385	30.2635	57.2032	
90	0.75	94.9949	2.86209	69.7313	80.7056	-7.24123	33.1727	89.5965	-9.75157	2.05839	106.215	-21.6579	-17.3052	101.265	29.8237	-14.3002	105.194	25.8426	-37.1451	106.991	24.704	-64.1197	122.372	8.28063	-23.417	107.205	-16.1844	-44.2086	95.4362	-49.6232	-41.7246	133.133	-21.6941	-10.177	115.361	-47.1613	8.75038	118.597	-35.3285	39.8255	150.793	-29.7521	2.69886	133.618	-48.4207	20.0496	128.805	-29.8348	44.3751	153.708	16.6308	32.9486	159.397	15.6152	73.4667	124.736	31.4614	56.7674	
91	0.758333	98.954	8.51318	67.3105	80.5852	-0.0580561	31.5575	87.9531	-8.16181	6.90676	101.942	-20.553	-16.7104	110.053	29.5761	-15.6505	108.944	28.8187	-43.0942	112.838	23.9266	-68.2093	123.21	5.93441	-26.0428	104.435	-21.3738	-43.7693	88.2905	-49.6492	-28.0503	128.33	-24.1603	-10.8883	110.938	-48.1473	9.72505	111.738	-34.4832	37.8313	149.616	-35.9397	2.85469	126.08	-47.9272	20.5949	123.95	-30.0541	44.2584	157.861	12.9361	31.3727	164.014	12.2114	70.3089	129.89	30.3532	57.1492	
92	0.766667	99.2398	15.8607	64.0373	85.1047	5.41157	32.9472	87.1256	-1.90634	4.10922	103.102	-17.2095	-13.1954	113.532	30.7496	-17.9891	115.104	28.5285	-45.2117	119.902	20.7098	-69.7176	125.785	3.95767	-27.0619	102.223	-20.1525	-41.2842	86.9262	-45.8346	-20.7632	125.579	-25.2361	-9.37261	105.862	-45.6467	6.37063	110.921	-31.3812	41.9382	141.515	-41.5589	3.27257	119.846	-48.1692	17.5801	119.396	-27.5039	45.84	161.027	7.42389	32.6337	166.866	7.39158	71.2253	134.79	28.9748	54.6436	
